# xmcd
#
# Track frame offsets:
#	150
#	12487
#	29675
#	48822
#	64075
#	74595
#	86732
#	100190
#	113600
#	127930
#
# Disc length: 1886 seconds
#
# Revision: 3
# Processed by: cddbd v1.5.2PL0 Copyright (c) Steve Scherf et al.
# Submitted via: audiograbber 1.83.01
#
DISCID=83075c0a
DTITLE=Becky Hobbs - All Keyed Up
DYEAR=1988
DGENRE=Country
TTITLE0=They Always Look Better When They're Leavin'
TTITLE1=Mama Was A Working Man
TTITLE2=She Broke Her Promise
TTITLE3=Cowgirl's Heart
TTITLE4=I'm-A-Gonna Get To You
TTITLE5=All Keyed Up
TTITLE6=Jones On The Jukebox
TTITLE7=It's Because I Do
TTITLE8=Old Flame Burns Blue
TTITLE9=Are There Any More Like You
EXTD=more info\nMillenniumMusicProjectFormat, AKALibraryCondensedFormat alphabe
EXTD=tically by title - syntax as follows:\nTitle{Subtitle}[info](Lyricist;Compo
EXTD=ser;Date,Artist,Location)[info]\ncorrections to: windking@gmail.com
EXTT0=
EXTT1=
EXTT2=
EXTT3=
EXTT4=
EXTT5=
EXTT6=
EXTT7=
EXTT8=
EXTT9=
PLAYORDER=
